<svg width="96" height="96" viewBox="0 0 480 484" fill="none" xmlns="http://www.w3.org/2000/svg">
<rect y="4" width="480" height="480" fill="#F2740D"/>
<path d="M239.05 185.2C239.05 202 236.5 215.95 231.4 227.05C226.3 238.15 218.35 248.2 207.55 257.2L244.9 376H161.65L133.75 275.2H123.4V376H47.8V96.55H152.2C182.2 96.55 204.1 103.6 217.9 117.7C232 131.8 239.05 154.3 239.05 185.2ZM135.1 227.95C142.9 227.95 148.45 225.7 151.75 221.2C155.05 216.7 156.7 208.6 156.7 196.9C156.7 184.9 155.05 176.65 151.75 172.15C148.45 167.35 143.05 164.95 135.55 164.95H123.4V227.95H135.1Z" fill="#2B2A33"/>
<path d="M427 169.4H352.75V211.25H412.6V270.65H352.75V380H275.8V100.55H431.5L427 169.4Z" fill="#2B2A33"/>
</svg>
